<svg width="120" height="40" viewBox="0 0 120 40" fill="none" xmlns="http://www.w3.org/2000/svg">
<path d="M8.44487 39.125C8.14019 39.125 7.84287 39.1211 7.54058 39.1143C6.91436 39.1061 6.2896 39.0516 5.67144 38.9512C5.09503 38.8519 4.53664 38.6673 4.0147 38.4033C3.49754 38.1415 3.02585 37.7983 2.6177 37.3867C2.20364 36.98 1.85891 36.5082 1.59719 35.9902C1.33258 35.4688 1.14945 34.9099 1.05419 34.333C0.951311 33.7131 0.895651 33.0863 0.887687 32.458C0.881347 32.2471 0.873047 31.5449 0.873047 31.5449V8.44434C0.873047 8.44434 0.881887 7.75293 0.887737 7.5498C0.895363 6.92248 0.950699 6.29665 1.05327 5.67773C1.14871 5.09925 1.33197 4.53875 1.59673 4.01563C1.85749 3.49794 2.2003 3.02586 2.61187 2.61768C3.02297 2.20562 3.49617 1.8606 4.01421 1.59521C4.53495 1.33209 5.09228 1.14873 5.66753 1.05127C6.28772 0.949836 6.91465 0.894996 7.54304 0.88721L8.44536 0.875H111.214L112.127 0.8877C112.75 0.895099 113.371 0.94945 113.985 1.05029C114.566 1.14898 115.13 1.33362 115.656 1.59814C116.694 2.13299 117.539 2.97916 118.071 4.01807C118.332 4.53758 118.512 5.09351 118.607 5.66699C118.71 6.29099 118.768 6.92174 118.78 7.5542C118.783 7.8374 118.783 8.1416 118.783 8.44434C118.791 8.81934 118.791 9.17627 118.791 9.53613V30.4648C118.791 30.8281 118.791 31.1826 118.783 31.54C118.783 31.8652 118.783 32.1631 118.779 32.4697C118.768 33.0909 118.711 33.7104 118.608 34.3232C118.515 34.9043 118.333 35.4675 118.068 35.9932C117.805 36.5056 117.462 36.9733 117.053 37.3789C116.644 37.7927 116.172 38.1379 115.653 38.4014C115.128 38.6674 114.566 38.8527 113.985 38.9512C113.367 39.0522 112.742 39.1067 112.116 39.1143C111.823 39.1211 111.517 39.125 111.219 39.125L110.135 39.127L8.44487 39.125Z" fill="#141316"/>
<path d="M24.768 20.3013C24.7788 19.4666 25.0005 18.6483 25.4125 17.9223C25.8245 17.1964 26.4135 16.5864 27.1246 16.1492C26.6728 15.5041 26.0769 14.9731 25.3841 14.5986C24.6912 14.224 23.9206 14.0162 23.1334 13.9916C21.4542 13.8153 19.8262 14.9964 18.9705 14.9964C18.0982 14.9964 16.7807 14.0091 15.362 14.0383C14.4443 14.0679 13.55 14.3348 12.7661 14.8128C11.9822 15.2909 11.3356 15.9638 10.8891 16.7661C8.9551 20.1145 10.3977 25.0356 12.2503 27.7422C13.1772 29.0676 14.2605 30.548 15.6779 30.4955C17.065 30.438 17.583 29.611 19.2573 29.611C20.9161 29.611 21.4021 30.4955 22.8483 30.4621C24.3367 30.438 25.2745 29.1309 26.1688 27.793C26.8348 26.8486 27.3473 25.8049 27.6873 24.7005C26.8225 24.3347 26.0846 23.7226 25.5655 22.9403C25.0464 22.158 24.769 21.2402 24.768 20.3013Z" fill="white"/>
<path d="M22.0356 12.2113C22.8471 11.2371 23.247 9.98494 23.1501 8.7207C21.9103 8.85092 20.765 9.44348 19.9426 10.3803C19.5404 10.838 19.2324 11.3704 19.0362 11.9472C18.8399 12.524 18.7593 13.1337 18.7988 13.7417C19.419 13.7481 20.0325 13.6137 20.5932 13.3486C21.1538 13.0835 21.647 12.6946 22.0356 12.2113Z" fill="white"/>
<path d="M42.3008 27.1397H37.5674L36.4307 30.4961H34.4258L38.9092 18.0781H40.9922L45.4756 30.4961H43.4365L42.3008 27.1397ZM38.0576 25.5908H41.8096L39.96 20.1436H39.9082L38.0576 25.5908Z" fill="white"/>
<path d="M55.1573 25.9695C55.1573 28.7829 53.6514 30.5905 51.3789 30.5905C50.8033 30.6207 50.2308 30.4881 49.727 30.2079C49.2232 29.9278 48.8085 29.5114 48.5303 29.0065H48.4873V33.4909H46.6289V21.4421H48.4278V22.948H48.4619C48.7529 22.4455 49.1746 22.0313 49.6823 21.7495C50.1899 21.4676 50.7644 21.3287 51.3448 21.3474C53.6426 21.3474 55.1573 23.1638 55.1573 25.9695ZM53.2471 25.9695C53.2471 24.1365 52.2998 22.9314 50.8545 22.9314C49.4346 22.9314 48.4795 24.1618 48.4795 25.9695C48.4795 27.7937 49.4346 29.0154 50.8545 29.0154C52.2998 29.0154 53.2471 27.8191 53.2471 25.9695Z" fill="white"/>
<path d="M65.1221 25.9694C65.1221 28.7829 63.6162 30.5905 61.3438 30.5905C60.7681 30.6206 60.1956 30.488 59.6918 30.2079C59.188 29.9278 58.7733 29.5114 58.4952 29.0065H58.4521V33.4909H56.5938V21.4421H58.3926V22.948H58.4268C58.7177 22.4455 59.1394 22.0313 59.6471 21.7495C60.1547 21.4676 60.7292 21.3287 61.3096 21.3474C63.6075 21.3474 65.1221 23.1638 65.1221 25.9694ZM63.2119 25.9694C63.2119 24.1364 62.2647 22.9314 60.8194 22.9314C59.3994 22.9314 58.4444 24.1618 58.4444 25.9694C58.4444 27.7937 59.3994 29.0153 60.8194 29.0153C62.2647 29.0153 63.2119 27.8191 63.2119 25.9694H63.2119Z" fill="white"/>
<path d="M71.709 27.0362C71.8467 28.2676 73.043 29.0762 74.6778 29.0762C76.2442 29.0762 77.3711 28.2676 77.3711 27.1572C77.3711 26.1934 76.6914 25.6162 75.0821 25.2207L73.4727 24.833C71.1924 24.2822 70.1338 23.2158 70.1338 21.4854C70.1338 19.3428 72.001 17.8711 74.6524 17.8711C77.2764 17.8711 79.0752 19.3428 79.1358 21.4854H77.2598C77.1475 20.2461 76.1231 19.4981 74.626 19.4981C73.1289 19.4981 72.1045 20.2549 72.1045 21.3565C72.1045 22.2344 72.7588 22.751 74.3594 23.1465L75.7275 23.4824C78.2754 24.0849 79.334 25.1084 79.334 26.9248C79.334 29.248 77.4834 30.7031 74.54 30.7031C71.7861 30.7031 69.9268 29.2822 69.8066 27.0361L71.709 27.0362Z" fill="white"/>
<path d="M83.3437 19.2998V21.4424H85.0654V22.9141H83.3437V27.9053C83.3437 28.6807 83.6885 29.042 84.4453 29.042C84.6497 29.0384 84.8538 29.0241 85.0566 28.999V30.4619C84.7164 30.5255 84.3705 30.5543 84.0244 30.5478C82.1914 30.5478 81.4766 29.8593 81.4766 28.1035V22.9141H80.1602V21.4424H81.4765V19.2998H83.3437Z" fill="white"/>
<path d="M86.0645 25.9697C86.0645 23.1211 87.7422 21.3311 90.3584 21.3311C92.9834 21.3311 94.6533 23.1211 94.6533 25.9697C94.6533 28.8262 92.9922 30.6084 90.3584 30.6084C87.7255 30.6084 86.0645 28.8262 86.0645 25.9697ZM92.7598 25.9697C92.7598 24.0156 91.8643 22.8623 90.3584 22.8623C88.8525 22.8623 87.958 24.0244 87.958 25.9697C87.958 27.9316 88.8525 29.0762 90.3584 29.0762C91.8643 29.0762 92.7597 27.9316 92.7597 25.9697H92.7598Z" fill="white"/>
<path d="M96.1836 21.442H97.9561V22.983H97.9991C98.119 22.5017 98.4009 22.0764 98.7975 21.7785C99.1941 21.4806 99.6812 21.3284 100.177 21.3473C100.391 21.3465 100.605 21.3698 100.814 21.4166V23.1549C100.543 23.0723 100.261 23.0343 99.9785 23.0426C99.7085 23.0316 99.4394 23.0792 99.1895 23.1821C98.9397 23.285 98.7151 23.4408 98.5311 23.6386C98.3471 23.8365 98.2082 24.0719 98.1237 24.3286C98.0393 24.5852 98.0114 24.8571 98.042 25.1256V30.4957H96.1836L96.1836 21.442Z" fill="white"/>
<path d="M109.382 27.8369C109.132 29.4805 107.531 30.6084 105.483 30.6084C102.85 30.6084 101.215 28.8437 101.215 26.0127C101.215 23.1729 102.858 21.3311 105.405 21.3311C107.91 21.3311 109.485 23.0518 109.485 25.7969V26.4336H103.091V26.5459C103.061 26.8791 103.103 27.2148 103.213 27.5306C103.323 27.8464 103.5 28.1352 103.73 28.3778C103.96 28.6203 104.24 28.8111 104.549 28.9374C104.859 29.0637 105.192 29.1226 105.526 29.1103C105.966 29.1515 106.406 29.0498 106.783 28.8203C107.16 28.5909 107.452 28.246 107.617 27.8369L109.382 27.8369ZM103.1 25.1348H107.626C107.643 24.8352 107.597 24.5354 107.493 24.2541C107.388 23.9729 107.226 23.7164 107.018 23.5006C106.809 23.2849 106.558 23.1145 106.281 23.0003C106.003 22.8861 105.705 22.8305 105.405 22.8369C105.103 22.8351 104.803 22.8933 104.523 23.008C104.243 23.1227 103.988 23.2918 103.774 23.5054C103.559 23.7191 103.389 23.973 103.274 24.2527C103.158 24.5323 103.099 24.8321 103.1 25.1348V25.1348Z" fill="white"/>
<path d="M37.8271 8.73138C38.2168 8.70342 38.6077 8.76228 38.9718 8.90371C39.3359 9.04515 39.6641 9.26563 39.9327 9.54925C40.2013 9.83288 40.4036 10.1726 40.525 10.5438C40.6464 10.9151 40.6839 11.3087 40.6348 11.6962C40.6348 13.6025 39.6045 14.6982 37.8271 14.6982H35.6719V8.73138H37.8271ZM36.5986 13.8544H37.7236C38.002 13.871 38.2806 13.8254 38.5392 13.7208C38.7977 13.6161 39.0297 13.4552 39.2182 13.2496C39.4067 13.0441 39.5469 12.7991 39.6288 12.5324C39.7107 12.2658 39.7321 11.9843 39.6914 11.7084C39.7291 11.4335 39.7056 11.1538 39.6224 10.8891C39.5393 10.6244 39.3987 10.3814 39.2106 10.1775C39.0226 9.97358 38.7917 9.81378 38.5346 9.70954C38.2776 9.6053 38.0006 9.55922 37.7236 9.57459H36.5986V13.8544Z" fill="white"/>
<path d="M41.6819 12.4448C41.6536 12.1489 41.6875 11.8503 41.7813 11.5682C41.8751 11.2862 42.0269 11.0268 42.2268 10.8068C42.4268 10.5868 42.6705 10.4111 42.9423 10.2908C43.2142 10.1705 43.5082 10.1084 43.8055 10.1084C44.1027 10.1084 44.3967 10.1705 44.6686 10.2908C44.9404 10.4111 45.1841 10.5868 45.3841 10.8068C45.584 11.0268 45.7358 11.2862 45.8296 11.5682C45.9235 11.8503 45.9573 12.1489 45.929 12.4448C45.9578 12.741 45.9244 13.04 45.8308 13.3225C45.7372 13.605 45.5855 13.8648 45.3855 14.0853C45.1856 14.3057 44.9417 14.4818 44.6695 14.6023C44.3974 14.7229 44.1031 14.7851 43.8055 14.7851C43.5078 14.7851 43.2135 14.7229 42.9414 14.6023C42.6693 14.4818 42.4254 14.3057 42.2254 14.0853C42.0254 13.8648 41.8737 13.605 41.7801 13.3225C41.6865 13.04 41.6531 12.741 41.6819 12.4448ZM45.0149 12.4448C45.0149 11.4687 44.5764 10.8979 43.8069 10.8979C43.0345 10.8979 42.5999 11.4687 42.5999 12.4448C42.5999 13.4287 43.0345 13.9951 43.8069 13.9951C44.5765 13.9951 45.0149 13.4248 45.0149 12.4448H45.0149Z" fill="white"/>
<path d="M51.5742 14.6982H50.6523L49.7217 11.3818H49.6514L48.7246 14.6982H47.8115L46.5703 10.1953H47.4717L48.2783 13.6313H48.3447L49.2705 10.1953H50.1231L51.0488 13.6313H51.1191L51.9219 10.1953H52.8105L51.5742 14.6982Z" fill="white"/>
<path d="M53.8535 10.1949H54.709V10.9102H54.7754C54.888 10.6533 55.0781 10.4379 55.3189 10.2941C55.5598 10.1503 55.8395 10.0852 56.1191 10.1079C56.3382 10.0915 56.5582 10.1245 56.7628 10.2046C56.9674 10.2847 57.1514 10.4098 57.3011 10.5707C57.4508 10.7315 57.5623 10.924 57.6275 11.1338C57.6927 11.3436 57.7099 11.5654 57.6777 11.7827V14.6977H56.7891V12.0059C56.7891 11.2823 56.4746 10.9224 55.8174 10.9224C55.6686 10.9155 55.5201 10.9408 55.3821 10.9966C55.244 11.0525 55.1197 11.1375 55.0175 11.2459C54.9154 11.3543 54.8379 11.4834 54.7904 11.6246C54.7429 11.7657 54.7264 11.9154 54.7422 12.0635V14.6978H53.8535L53.8535 10.1949Z" fill="white"/>
<path d="M59.0938 8.4375H59.9824V14.6982H59.0938V8.4375Z" fill="white"/>
<path d="M61.219 12.4449C61.1907 12.1489 61.2246 11.8503 61.3185 11.5683C61.4123 11.2862 61.5641 11.0268 61.7641 10.8068C61.964 10.5869 62.2078 10.4111 62.4796 10.2908C62.7515 10.1705 63.0455 10.1084 63.3428 10.1084C63.6401 10.1084 63.9341 10.1705 64.206 10.2908C64.4778 10.4111 64.7215 10.5869 64.9215 10.8068C65.1215 11.0268 65.2733 11.2862 65.3671 11.5683C65.461 11.8503 65.4949 12.1489 65.4666 12.4449C65.4954 12.7411 65.4619 13.0401 65.3683 13.3226C65.2747 13.6051 65.123 13.8649 64.9229 14.0853C64.7229 14.3058 64.479 14.4819 64.2069 14.6024C63.9348 14.7229 63.6404 14.7852 63.3428 14.7852C63.0452 14.7852 62.7508 14.7229 62.4787 14.6024C62.2065 14.4819 61.9626 14.3058 61.7626 14.0853C61.5626 13.8649 61.4109 13.6051 61.3173 13.3226C61.2237 13.0401 61.1902 12.7411 61.219 12.4449ZM64.552 12.4449C64.552 11.4688 64.1135 10.898 63.344 10.898C62.5715 10.898 62.137 11.4688 62.137 12.4449C62.137 13.4288 62.5716 13.9952 63.344 13.9952C64.1135 13.9952 64.552 13.4248 64.552 12.4449H64.552Z" fill="white"/>
<path d="M66.4023 13.4248C66.4023 12.6142 67.0059 12.147 68.0771 12.0806L69.2969 12.0102V11.6216C69.2969 11.146 68.9824 10.8774 68.375 10.8774C67.8789 10.8774 67.5352 11.0596 67.4365 11.3779H66.5762C66.667 10.6045 67.3945 10.1084 68.416 10.1084C69.5449 10.1084 70.1816 10.6704 70.1816 11.6216V14.6982H69.3262V14.0654H69.2559C69.1131 14.2924 68.9127 14.4775 68.6751 14.6017C68.4375 14.7259 68.1712 14.7848 67.9033 14.7724C67.7143 14.7921 67.5232 14.7719 67.3425 14.7132C67.1617 14.6545 66.9953 14.5586 66.8538 14.4316C66.7124 14.3047 66.5992 14.1495 66.5214 13.9761C66.4437 13.8026 66.4031 13.6149 66.4023 13.4248ZM69.2969 13.04V12.6636L68.1973 12.7339C67.5771 12.7754 67.2959 12.9863 67.2959 13.3833C67.2959 13.7886 67.6474 14.0244 68.1309 14.0244C68.2725 14.0387 68.4156 14.0244 68.5516 13.9823C68.6876 13.9403 68.8138 13.8712 68.9226 13.7794C69.0313 13.6876 69.1205 13.5748 69.1849 13.4477C69.2492 13.3207 69.2873 13.1821 69.2969 13.04Z" fill="white"/>
<path d="M71.3496 12.4448C71.3496 11.022 72.0811 10.1206 73.2188 10.1206C73.5002 10.1077 73.7795 10.1751 74.024 10.315C74.2685 10.4548 74.4682 10.6615 74.5996 10.9106H74.666V8.4375H75.5547V14.6982H74.7031V13.9868H74.6328C74.4912 14.2343 74.2846 14.4383 74.0353 14.5768C73.7861 14.7153 73.5037 14.783 73.2188 14.7724C72.0732 14.7725 71.3496 13.8711 71.3496 12.4448ZM72.2676 12.4448C72.2676 13.3999 72.7178 13.9746 73.4707 13.9746C74.2197 13.9746 74.6826 13.3916 74.6826 12.4487C74.6826 11.5103 74.2149 10.919 73.4707 10.919C72.7227 10.919 72.2676 11.4976 72.2676 12.4448H72.2676Z" fill="white"/>
<path d="M79.2307 12.4448C79.2024 12.1489 79.2363 11.8503 79.3301 11.5682C79.424 11.2862 79.5757 11.0268 79.7757 10.8068C79.9756 10.5868 80.2193 10.4111 80.4912 10.2908C80.763 10.1705 81.057 10.1084 81.3543 10.1084C81.6516 10.1084 81.9455 10.1705 82.2174 10.2908C82.4892 10.4111 82.7329 10.5868 82.9329 10.8068C83.1328 11.0268 83.2846 11.2862 83.3784 11.5682C83.4723 11.8503 83.5061 12.1489 83.4778 12.4448C83.5067 12.741 83.4732 13.04 83.3796 13.3225C83.286 13.605 83.1344 13.8648 82.9344 14.0853C82.7344 14.3057 82.4905 14.4818 82.2184 14.6023C81.9462 14.7229 81.6519 14.7851 81.3543 14.7851C81.0567 14.7851 80.7623 14.7229 80.4902 14.6023C80.2181 14.4818 79.9742 14.3057 79.7742 14.0853C79.5742 13.8648 79.4225 13.605 79.3289 13.3225C79.2353 13.04 79.2019 12.741 79.2307 12.4448ZM82.5637 12.4448C82.5637 11.4687 82.1253 10.8979 81.3557 10.8979C80.5833 10.8979 80.1487 11.4687 80.1487 12.4448C80.1487 13.4287 80.5833 13.9951 81.3557 13.9951C82.1253 13.9951 82.5637 13.4248 82.5637 12.4448Z" fill="white"/>
<path d="M84.6699 10.1949H85.5254V10.9102H85.5918C85.7045 10.6533 85.8945 10.4379 86.1353 10.2941C86.3762 10.1503 86.6559 10.0852 86.9356 10.1079C87.1547 10.0915 87.3746 10.1245 87.5792 10.2046C87.7838 10.2847 87.9678 10.4098 88.1175 10.5707C88.2672 10.7315 88.3787 10.924 88.4439 11.1338C88.5091 11.3436 88.5263 11.5654 88.4941 11.7827V14.6977H87.6055V12.0059C87.6055 11.2823 87.291 10.9224 86.6338 10.9224C86.485 10.9155 86.3365 10.9408 86.1985 10.9966C86.0604 11.0525 85.9361 11.1375 85.8339 11.2459C85.7318 11.3543 85.6543 11.4834 85.6068 11.6246C85.5593 11.7657 85.5428 11.9154 85.5586 12.0635V14.6978H84.6699V10.1949Z" fill="white"/>
<path d="M93.5166 9.07422V10.2158H94.4922V10.9644H93.5166V13.2798C93.5166 13.7515 93.7109 13.958 94.1533 13.958C94.2666 13.9576 94.3797 13.9508 94.4922 13.9375V14.6777C94.3326 14.7063 94.1709 14.7215 94.0088 14.7231C93.0205 14.7231 92.627 14.3755 92.627 13.5073V10.9643H91.9121V10.2158H92.627V9.07422H93.5166Z" fill="white"/>
<path d="M95.7051 8.4375H96.5859V10.919H96.6562C96.7744 10.6596 96.9696 10.443 97.2153 10.2987C97.461 10.1543 97.7452 10.0893 98.0292 10.1123C98.2472 10.1004 98.4651 10.1368 98.6674 10.2189C98.8697 10.3009 99.0513 10.4266 99.1995 10.5869C99.3476 10.7473 99.4585 10.9383 99.5243 11.1465C99.5901 11.3546 99.6091 11.5747 99.58 11.791V14.6982H98.6905V12.0103C98.6905 11.291 98.3555 10.9268 97.7276 10.9268C97.5748 10.9142 97.4212 10.9352 97.2774 10.9883C97.1337 11.0413 97.0032 11.1252 96.8952 11.2339C96.7872 11.3426 96.7043 11.4737 96.6522 11.6178C96.6002 11.7619 96.5802 11.9157 96.5938 12.0683V14.6982H95.7051L95.7051 8.4375Z" fill="white"/>
<path d="M104.761 13.4825C104.641 13.894 104.379 14.25 104.022 14.4882C103.666 14.7263 103.237 14.8315 102.81 14.7852C102.514 14.7931 102.219 14.7362 101.946 14.6187C101.674 14.5012 101.43 14.3258 101.232 14.1046C101.034 13.8835 100.887 13.6219 100.8 13.3381C100.713 13.0543 100.69 12.755 100.73 12.461C100.691 12.1661 100.715 11.8662 100.801 11.5815C100.888 11.2969 101.035 11.0341 101.231 10.811C101.428 10.5879 101.671 10.4098 101.943 10.2886C102.214 10.1674 102.509 10.1059 102.806 10.1085C104.059 10.1085 104.815 10.9645 104.815 12.3785V12.6886H101.635V12.7384C101.621 12.9036 101.642 13.0699 101.696 13.2267C101.751 13.3834 101.837 13.5271 101.95 13.6486C102.063 13.7701 102.2 13.8666 102.352 13.932C102.504 13.9974 102.669 14.0302 102.835 14.0284C103.047 14.0539 103.263 14.0156 103.453 13.9184C103.644 13.8212 103.802 13.6694 103.906 13.4825L104.761 13.4825ZM101.635 12.0313H103.91C103.921 11.8802 103.9 11.7284 103.85 11.5857C103.799 11.443 103.718 11.3125 103.614 11.2026C103.51 11.0928 103.383 11.006 103.243 10.9478C103.103 10.8896 102.953 10.8614 102.801 10.8648C102.648 10.8629 102.495 10.8918 102.353 10.9497C102.21 11.0076 102.081 11.0935 101.972 11.2022C101.864 11.3109 101.778 11.4403 101.72 11.5827C101.662 11.7251 101.633 11.8776 101.635 12.0313H101.635Z" fill="white"/>
</svg>
