<svg width="136" height="40" viewBox="0 0 136 40" fill="none" xmlns="http://www.w3.org/2000/svg">
<path d="M130.664 40H5.66406C2.91406 40 0.664062 37.75 0.664062 35V5C0.664062 2.25 2.91406 2.38419e-06 5.66406 2.38419e-06H130.664C133.414 2.38419e-06 135.664 2.25 135.664 5V35C135.664 37.75 133.414 40 130.664 40Z" fill="#141316"/>
<path d="M48.082 10.2432C48.082 11.081 47.8339 11.7482 47.337 12.2459C46.7726 12.8377 46.037 13.1338 45.1327 13.1338C44.2667 13.1338 43.5304 12.8338 42.9249 12.233C42.3183 11.6326 42.0156 10.8881 42.0156 9.99979C42.0156 9.11109 42.3183 8.36699 42.9249 7.76619C43.5304 7.16579 44.2667 6.86539 45.1327 6.86539C45.5624 6.86539 45.9738 6.94939 46.3644 7.11699C46.755 7.28499 47.0683 7.50799 47.3027 7.78729L46.7753 8.31499C46.3781 7.84039 45.8312 7.60329 45.1327 7.60329C44.5011 7.60329 43.955 7.82519 43.4941 8.26929C43.0331 8.71389 42.8027 9.29039 42.8027 9.99979C42.8027 10.7092 43.0331 11.2857 43.4941 11.7303C43.955 12.1744 44.5011 12.3963 45.1327 12.3963C45.8027 12.3963 46.3613 12.1732 46.8085 11.7264C47.0988 11.4353 47.2667 11.0307 47.3116 10.5111H45.1327V9.79039H48.0402C48.0683 9.94709 48.082 10.0975 48.082 10.2432Z" fill="white"/>
<path d="M48.0824 10.2438H47.9824C47.9816 11.0625 47.7425 11.6984 47.2667 12.1758L47.2656 12.1766L47.2652 12.1774C46.7187 12.7488 46.0163 13.0332 45.1331 13.0344C44.2902 13.0332 43.5847 12.7457 42.9956 12.1629C42.4078 11.5789 42.1171 10.866 42.116 10.0004C42.1171 9.13437 42.4078 8.42187 42.9956 7.83827C43.5847 7.25507 44.2902 6.96717 45.1331 6.96597C45.5499 6.96597 45.9468 7.04727 46.3253 7.20937C46.7042 7.37267 47.0035 7.58667 47.2265 7.85237L47.3031 7.78787L47.2324 7.71717L46.705 8.24527L46.7757 8.31557L46.8527 8.25157C46.437 7.75347 45.8535 7.50237 45.1331 7.50387C44.4781 7.50307 43.9019 7.73707 43.4253 8.19807C42.9441 8.66057 42.7023 9.26947 42.7031 10.0004C42.7023 10.7313 42.9441 11.3402 43.4253 11.8027C43.9019 12.2637 44.4781 12.4977 45.1331 12.4969C45.8253 12.4981 46.4152 12.2633 46.8796 11.7977C47.1898 11.4867 47.3656 11.0559 47.4117 10.5203L47.421 10.4117H45.2331V9.89097H48.0406V9.79097L47.9421 9.80857C47.9695 9.96017 47.9824 10.1043 47.9824 10.2438H48.0824H48.1824C48.1824 10.0918 48.1683 9.93557 48.139 9.77307L48.1242 9.69097H45.0331V10.5117V10.6117H47.312V10.5117L47.2124 10.5031C47.1683 11.0063 47.0081 11.3852 46.7382 11.6563C46.3085 12.0844 45.7812 12.2957 45.1331 12.2969C44.5249 12.2961 44.0089 12.0867 43.564 11.659C43.1234 11.2328 42.9042 10.6887 42.9031 10.0004C42.9042 9.31207 43.1234 8.76797 43.564 8.34177C44.0089 7.91407 44.5249 7.70467 45.1331 7.70387C45.8093 7.70547 46.3199 7.92887 46.6992 8.38007L46.7695 8.46367L47.3738 7.85857L47.4386 7.79377L47.3796 7.72377C47.1339 7.43087 46.8066 7.19837 46.4042 7.02577C46.0011 6.85267 45.5757 6.76597 45.1331 6.76597C44.2441 6.76517 43.4769 7.07767 42.8546 7.69607C42.23 8.31327 41.9152 9.08907 41.916 10.0004C41.9152 10.9113 42.23 11.6875 42.855 12.3051C43.4769 12.9231 44.2441 13.2352 45.1331 13.2344C46.0589 13.2352 46.8269 12.9277 47.4097 12.3156L47.3374 12.2465L47.4081 12.3172C47.9261 11.7996 48.1831 11.1004 48.1824 10.2438H48.0824Z" fill="white"/>
<path d="M52.6921 7.7371H49.9598V9.6395H52.4238V10.3605H49.9598V12.2629H52.6921V13H49.1895V7H52.6921V7.7371Z" fill="white"/>
<path d="M52.6925 7.73671V7.63671H49.8601V9.73911H52.3242V10.2598L49.8601 10.2601V12.3625H52.5925V12.8996H49.2898V7.09961H52.5925V7.73671H52.6925V7.63671V7.73671H52.7925V6.99961V6.89961H49.0898V13.0996H52.7925V12.2625V12.1625H50.0601V10.4601H52.5243V9.63911V9.53911H50.0601V7.83671H52.7925V7.73671H52.6925Z" fill="white"/>
<path d="M55.9434 13H55.1719V7.7371H53.4961V7H57.6192V7.7371H55.9434V13Z" fill="white"/>
<path d="M55.9438 12.9996V12.8996H55.2723V7.63671H53.5965V7.09961H57.5196V7.63671H55.8438V12.9996H55.9438V12.8996V12.9996H56.0438V7.83671H57.7196V6.99961V6.89961H53.3965V7.73671V7.83671H55.0723V13.0996H55.9438H56.0438V12.9996H55.9438Z" fill="white"/>
<path d="M60.6016 13V7H61.3723V13H60.6016Z" fill="white"/>
<path d="M60.602 12.9996H60.702V7.09961H61.2726V12.8996H60.602V12.9996H60.702H60.602V13.0996H61.3726H61.4726V6.89961H60.602H60.502V13.0996H60.602V12.9996Z" fill="white"/>
<path d="M64.7929 13H64.0214V7.7371H62.3457V7H66.4687V7.7371H64.7929V13Z" fill="white"/>
<path d="M64.7933 12.9996V12.8996H64.1218V7.63671H62.4461V7.09961H66.3691V7.63671H64.6933V12.9996H64.7933V12.8996V12.9996H64.8933V7.83671H66.5691V6.99961V6.89961H62.2461V7.73671V7.83671H63.9218V13.0996H64.7933H64.8933V12.9996H64.7933Z" fill="white"/>
<path d="M70.4433 11.7221C70.8874 12.1717 71.4308 12.3963 72.0734 12.3963C72.716 12.3963 73.2597 12.1717 73.7031 11.7221C74.1476 11.2725 74.3703 10.6978 74.3703 9.99979C74.3703 9.30179 74.1476 8.72709 73.7031 8.27749C73.2597 7.82789 72.716 7.60329 72.0734 7.60329C71.4308 7.60329 70.8874 7.82789 70.4433 8.27749C69.9999 8.72709 69.7773 9.30179 69.7773 9.99979C69.7773 10.6978 69.9999 11.2725 70.4433 11.7221ZM74.2734 12.2244C73.6835 12.831 72.9499 13.1338 72.0734 13.1338C71.196 13.1338 70.4628 12.831 69.8742 12.2244C69.2839 11.6185 68.9902 10.8768 68.9902 9.99979C68.9902 9.12279 69.2839 8.38099 69.8742 7.77519C70.4628 7.16849 71.196 6.86539 72.0734 6.86539C72.9453 6.86539 73.6769 7.17009 74.2695 7.77909C74.8613 8.38809 75.1574 9.12829 75.1574 9.99979C75.1574 10.8768 74.862 11.6185 74.2734 12.2244Z" fill="white"/>
<path d="M70.4437 11.7227L70.3726 11.793C70.8332 12.2606 71.4078 12.4981 72.0738 12.4969C72.7394 12.4981 73.3148 12.2606 73.7746 11.793C74.2382 11.325 74.4714 10.7195 74.4707 10.0004C74.4714 9.28127 74.2382 8.67577 73.7746 8.20778C73.3148 7.74018 72.7394 7.50268 72.0738 7.50388C71.4078 7.50268 70.8332 7.74018 70.3726 8.20778C69.9101 8.67577 69.6765 9.28127 69.6777 10.0004C69.6765 10.7195 69.9101 11.325 70.3726 11.793L70.4437 11.7227L70.5148 11.6524C70.0906 11.2207 69.8785 10.6777 69.8777 10.0004C69.8785 9.32307 70.0906 8.78008 70.5148 8.34838C70.9429 7.91678 71.4542 7.70507 72.0738 7.70388C72.6929 7.70507 73.2054 7.91678 73.6324 8.34838C74.0574 8.78008 74.2695 9.32307 74.2703 10.0004C74.2695 10.6777 74.0574 11.2207 73.6324 11.6524C73.2054 12.084 72.6929 12.2957 72.0738 12.2969C71.4542 12.2957 70.9429 12.084 70.5148 11.6524L70.4437 11.7227ZM74.2738 12.225L74.2023 12.1555C73.6289 12.743 72.9277 13.0332 72.0738 13.0344C71.2195 13.0332 70.5183 12.743 69.946 12.1555L69.9433 12.1524L69.946 12.1555C69.3738 11.566 69.0914 10.8551 69.0906 10.0004C69.0914 9.14567 69.3738 8.43478 69.946 7.84528C70.5183 7.25778 71.2195 6.96718 72.0738 6.96598C72.9222 6.96718 73.6218 7.25898 74.1984 7.84958C74.7726 8.44177 75.0566 9.15157 75.0578 10.0004C75.0566 10.8551 74.7734 11.566 74.2023 12.1555L74.2738 12.225L74.3457 12.2945C74.9519 11.6719 75.2585 10.8996 75.2578 10.0004C75.2585 9.10627 74.9507 8.33557 74.3417 7.71017C73.7324 7.08237 72.9691 6.76488 72.0738 6.76598C71.1738 6.76488 70.4082 7.08087 69.8027 7.70627V7.70587C69.1953 8.32887 68.8898 9.10117 68.8906 10.0004C68.8898 10.8996 69.1953 11.6719 69.8027 12.2949L69.8054 12.2977L69.8027 12.2945C70.4082 12.9199 71.1738 13.2352 72.0738 13.2344C72.9734 13.2352 73.739 12.9199 74.3457 12.2945L74.2738 12.225Z" fill="white"/>
<path d="M76.2402 13V7H77.1785L80.0945 11.6676H80.1277L80.0945 10.5113V7H80.866V13H80.0613L77.0105 8.1062H76.9773L77.0105 9.2629V13H76.2402Z" fill="white"/>
<path d="M76.2387 12.9996H76.3387V7.09961H77.1215L80.0375 11.7672H80.1262H80.2289L80.193 10.5094V7.09961H80.7645V12.8996H80.1153L77.0645 8.00581H76.9758H76.8731L76.909 9.26411V12.8996H76.2387V12.9996H76.3387H76.2387V13.0996H77.009H77.109V9.26091L77.0758 8.10311L76.9758 8.10581V8.20581H77.009V8.10581L76.9242 8.15901L80.0043 13.0996H80.8645H80.9645V6.89961H80.093H79.993V10.5121L80.0262 11.6699L80.1262 11.6672V11.5672H80.093V11.6672L80.1778 11.6141L77.2324 6.89961H76.2387H76.1387V13.0996H76.2387V12.9996Z" fill="white"/>
<path d="M107.599 30H109.465V17.4988H107.599V30ZM124.406 22.002L122.267 27.4219H122.203L119.983 22.002H117.973L121.302 29.5773L119.404 33.791H121.351L126.481 22.002H124.406ZM113.824 28.5801C113.212 28.5801 112.36 28.2746 112.36 27.5184C112.36 26.5535 113.422 26.1836 114.338 26.1836C115.159 26.1836 115.544 26.3605 116.043 26.602C115.898 27.7598 114.901 28.5801 113.824 28.5801ZM114.049 21.7285C112.698 21.7285 111.299 22.3238 110.72 23.6426L112.376 24.334C112.73 23.6426 113.389 23.4172 114.081 23.4172C115.046 23.4172 116.027 23.9965 116.043 25.0258V25.1543C115.705 24.9613 114.982 24.6719 114.097 24.6719C112.312 24.6719 110.494 25.6527 110.494 27.4863C110.494 29.159 111.958 30.2367 113.598 30.2367C114.853 30.2367 115.544 29.6738 115.979 29.0145H116.043V29.9793H117.844V25.1863C117.844 22.9672 116.188 21.7285 114.049 21.7285ZM102.517 23.5238H99.8633V19.2387H102.517C103.912 19.2387 104.704 20.3937 104.704 21.3812C104.704 22.35 103.912 23.5238 102.517 23.5238ZM102.469 17.4988H97.9983V30H99.8633V25.2637H102.469C104.537 25.2637 106.57 23.7664 106.57 21.3812C106.57 18.9961 104.537 17.4988 102.469 17.4988ZM78.0883 28.5824C76.7992 28.5824 75.7199 27.5031 75.7199 26.0207C75.7199 24.5227 76.7992 23.427 78.0883 23.427C79.361 23.427 80.3598 24.5227 80.3598 26.0207C80.3598 27.5031 79.361 28.5824 78.0883 28.5824ZM80.2309 22.702H80.1664C79.7477 22.2027 78.9418 21.7516 77.927 21.7516C75.8004 21.7516 73.8512 23.6203 73.8512 26.0207C73.8512 28.4051 75.8004 30.2578 77.927 30.2578C78.9418 30.2578 79.7477 29.8066 80.1664 29.2914H80.2309V29.9035C80.2309 31.5309 79.361 32.4008 77.9594 32.4008C76.8156 32.4008 76.1067 31.5789 75.8164 30.8863L74.1895 31.5629C74.6567 32.6906 75.8973 34.0762 77.9594 34.0762C80.1504 34.0762 82.0031 32.7871 82.0031 29.6457V22.0094H80.2309V22.702ZM83.2918 30H85.1606V17.4984H83.2918V30ZM87.9156 25.8758C87.8672 24.2324 89.1883 23.3949 90.1387 23.3949C90.8803 23.3949 91.5083 23.7652 91.7173 24.2973L87.9156 25.8758ZM93.7153 24.4582C93.3613 23.5074 92.2813 21.7516 90.0742 21.7516C87.8832 21.7516 86.0629 23.4754 86.0629 26.0047C86.0629 28.3891 87.8672 30.2578 90.2836 30.2578C92.2333 30.2578 93.3613 29.0656 93.8283 28.373L92.3783 27.4062C91.8953 28.1152 91.2343 28.5824 90.2836 28.5824C89.3332 28.5824 88.6567 28.1473 88.2215 27.2937L93.9083 24.9414L93.7153 24.4582ZM48.4071 23.0566V24.8609H52.7246C52.5957 25.8758 52.2574 26.6168 51.7418 27.1324C51.1137 27.7609 50.1309 28.4535 48.4071 28.4535C45.7488 28.4535 43.6707 26.3109 43.6707 23.6527C43.6707 20.9945 45.7488 18.8516 48.4071 18.8516C49.841 18.8516 50.8879 19.4156 51.6613 20.1406L52.934 18.868C51.8547 17.8367 50.4207 17.0473 48.4071 17.0473C44.766 17.0473 41.7051 20.0117 41.7051 23.6527C41.7051 27.2937 44.766 30.2578 48.4071 30.2578C50.3727 30.2578 51.8547 29.6137 53.0145 28.4051C54.2067 27.2129 54.5774 25.5375 54.5774 24.1844C54.5774 23.7652 54.5453 23.3789 54.4805 23.0566H48.4071ZM59.486 28.5824C58.1969 28.5824 57.0852 27.5191 57.0852 26.0047C57.0852 24.4742 58.1969 23.427 59.486 23.427C60.7746 23.427 61.8863 24.4742 61.8863 26.0047C61.8863 27.5191 60.7746 28.5824 59.486 28.5824ZM59.486 21.7516C57.1336 21.7516 55.2164 23.5398 55.2164 26.0047C55.2164 28.4535 57.1336 30.2578 59.486 30.2578C61.8379 30.2578 63.7551 28.4535 63.7551 26.0047C63.7551 23.5398 61.8379 21.7516 59.486 21.7516ZM68.7992 28.5824C67.5106 28.5824 66.3988 27.5191 66.3988 26.0047C66.3988 24.4742 67.5106 23.427 68.7992 23.427C70.0879 23.427 71.1996 24.4742 71.1996 26.0047C71.1996 27.5191 70.0879 28.5824 68.7992 28.5824ZM68.7992 21.7516C66.4469 21.7516 64.5301 23.5398 64.5301 26.0047C64.5301 28.4535 66.4469 30.2578 68.7992 30.2578C71.1512 30.2578 73.0684 28.4535 73.0684 26.0047C73.0684 23.5398 71.1512 21.7516 68.7992 21.7516Z" fill="white"/>
<path d="M11.1738 32.3896L11.0995 32.3185C10.8085 32.0106 10.6367 31.5325 10.6367 30.9134V31.0591V8.94315C10.6367 8.94115 10.6367 8.93965 10.6367 8.93805C10.6367 8.93995 10.6367 8.94155 10.6367 8.94355V9.08965C10.6367 8.41925 10.837 7.91425 11.1726 7.61145L23.5624 20.0009L11.1738 32.3896ZM10.6367 8.93685C10.6367 8.88175 10.6382 8.82825 10.641 8.77555C10.6382 8.82785 10.6367 8.88175 10.6367 8.93685ZM10.641 8.77315C10.641 8.77245 10.641 8.77165 10.6413 8.77085C10.641 8.77165 10.641 8.77245 10.641 8.77315ZM10.6413 8.76615C10.6413 8.76575 10.6413 8.76535 10.6413 8.76495C10.6413 8.76535 10.6413 8.76575 10.6413 8.76615Z" fill="url(#paint0_linear)"/>
<path d="M27.6918 24.2783L27.786 24.2248L32.6789 21.4447C33.1454 21.1795 33.4563 20.858 33.6114 20.5178C33.4567 20.858 33.1457 21.1799 32.6789 21.4451L27.786 24.2252L27.6918 24.2783ZM27.693 24.1318L23.5625 20.0006L27.6926 15.8701L32.6789 18.7029C33.3121 19.0627 33.6676 19.5264 33.727 20.0002C33.727 20.0006 33.727 20.0014 33.727 20.0021C33.6676 20.4748 33.3121 20.9389 32.6789 21.2986L27.693 24.1318Z" fill="url(#paint1_linear)"/>
<path d="M12.0567 32.8613C11.7106 32.8613 11.4086 32.7488 11.1731 32.5363L11.1735 32.5359C11.409 32.7484 11.7114 32.8613 12.0575 32.8613C12.0875 32.8613 12.118 32.8605 12.1489 32.859C12.1176 32.8605 12.0867 32.8613 12.0567 32.8613ZM12.0571 32.7148C11.711 32.7152 11.409 32.6023 11.1735 32.3898V32.3895L23.5621 20.0008L27.6926 24.132L13.1774 32.3793C12.7758 32.607 12.3953 32.7148 12.0571 32.7148ZM11.17 32.5336C11.1481 32.5137 11.1266 32.4926 11.1055 32.4707L11.17 32.5336Z" fill="url(#paint2_linear)"/>
<path d="M23.5617 20.001L11.1719 7.61148C11.4074 7.39938 11.709 7.28688 12.0547 7.28688C12.3938 7.28688 12.7746 7.39508 13.177 7.62318L27.6918 15.8705L23.5617 20.001ZM27.7852 15.7772L13.177 7.47718C12.7746 7.24898 12.3938 7.14078 12.0547 7.14078C12.0531 7.14078 12.052 7.14078 12.0504 7.14078C12.0524 7.14078 12.0539 7.14078 12.0563 7.14078C12.3946 7.14078 12.775 7.24858 13.177 7.47678L27.7852 15.7772Z" fill="url(#paint3_linear)"/>
<path d="M12.1493 32.8594C12.4637 32.8414 12.8118 32.7332 13.1778 32.5258L27.6918 24.2789L13.1778 32.5258C12.8121 32.7336 12.4637 32.8414 12.1493 32.8594ZM11.1735 32.5367L11.1704 32.534C11.1715 32.5348 11.1727 32.5359 11.1735 32.5367ZM11.1059 32.4711L11.0996 32.4649V32.4645C11.102 32.4668 11.1039 32.4691 11.1059 32.4711Z" fill="#141316"/>
<path d="M27.6914 24.2783L27.7856 24.2248L27.6914 24.2783Z" fill="url(#paint4_linear)"/>
<path d="M12.0579 32.8613C11.7118 32.8613 11.4094 32.7484 11.1739 32.5359L11.1735 32.5363C11.1727 32.5355 11.1715 32.5344 11.1704 32.5336L11.1059 32.4707C11.1039 32.4687 11.102 32.4664 11.0996 32.4641L11.1739 32.3898C11.4094 32.6023 11.7114 32.7152 12.0575 32.7148C12.3957 32.7148 12.7762 32.607 13.1778 32.3793L27.693 24.132L27.786 24.225L27.6918 24.2785L13.1778 32.5254C12.8118 32.7328 12.4637 32.841 12.1493 32.859C12.1184 32.8605 12.0879 32.8613 12.0579 32.8613Z" fill="url(#paint5_linear)"/>
<path d="M11.0995 32.4648C10.8085 32.1569 10.6367 31.6788 10.6367 31.0597V31.0593C10.6367 31.6788 10.8085 32.1565 11.0995 32.4644V32.4648Z" fill="#141316"/>
<path d="M11.0995 32.4639C10.8085 32.156 10.6367 31.6783 10.6367 31.0588V30.9131C10.6367 31.5322 10.8085 32.0103 11.0995 32.3182L11.1738 32.3893L11.0995 32.4639Z" fill="url(#paint6_linear)"/>
<path d="M11.0996 32.4639L11.1739 32.3893V32.3896L11.0996 32.4639Z" fill="url(#paint7_linear)"/>
<path d="M33.6113 20.5176C33.6882 20.3488 33.7269 20.1754 33.7269 20.0019C33.7269 20.0016 33.7269 20.0012 33.7269 20.0012C33.7269 20.175 33.6882 20.3484 33.6113 20.5176Z" fill="#141316"/>
<path d="M27.7864 24.2246L27.6934 24.1316L32.6793 21.2984C33.3125 20.9387 33.668 20.4746 33.7274 20.0019C33.7274 20.1754 33.6887 20.3488 33.6118 20.5176C33.4567 20.8578 33.1458 21.1793 32.6793 21.4445L27.7864 24.2246Z" fill="url(#paint8_linear)"/>
<path d="M33.7266 20.001V20.0006C33.7262 19.4775 33.3766 18.9545 32.6785 18.5576L27.7856 15.7775H27.7852L27.7856 15.7772L32.6785 18.5572C33.3774 18.9541 33.7274 19.4779 33.7266 20.001Z" fill="#404040"/>
<path d="M33.7278 20C33.6684 19.5262 33.3129 19.0625 32.6797 18.7027L27.6934 15.8699L27.7864 15.7769H27.7868L32.6797 18.557C33.3778 18.9539 33.7274 19.4769 33.7278 20Z" fill="url(#paint9_linear)"/>
<path d="M10.6367 8.9375C10.6367 8.9371 10.6367 8.9367 10.6367 8.9363C10.6367 8.9367 10.6367 8.9371 10.6367 8.9375ZM10.641 8.775C10.641 8.7742 10.641 8.7734 10.641 8.7726C10.641 8.7734 10.641 8.7742 10.641 8.775ZM10.6413 8.7703C10.6413 8.7687 10.6413 8.7672 10.6413 8.7656C10.6413 8.7672 10.6413 8.7687 10.6413 8.7703ZM10.6413 8.7644C10.6992 7.7371 11.2578 7.1437 12.048 7.1402C11.7054 7.1422 11.407 7.2547 11.1734 7.4652V7.4648L11.1706 7.4676C11.146 7.4898 11.1226 7.5133 11.0995 7.5375C10.837 7.8152 10.6714 8.2312 10.6413 8.7644Z" fill="#404040"/>
<path d="M10.6367 9.08984V8.94374C10.6367 8.94174 10.6367 8.94014 10.6367 8.93824C10.6367 8.93784 10.6367 8.93745 10.6367 8.93705C10.6367 8.88195 10.6382 8.82804 10.641 8.77574C10.641 8.77494 10.641 8.77415 10.641 8.77335C10.641 8.77265 10.641 8.77184 10.6413 8.77104C10.6413 8.76944 10.6413 8.76794 10.6413 8.76634C10.6413 8.76594 10.6413 8.76555 10.6413 8.76515C10.6714 8.23194 10.837 7.81594 11.0995 7.53824L11.1726 7.61164C10.837 7.91444 10.6367 8.41944 10.6367 9.08984ZM11.1706 7.46834L11.1734 7.46554C11.1726 7.46674 11.1714 7.46754 11.1706 7.46834Z" fill="url(#paint10_linear)"/>
<path d="M27.6926 15.8701L13.1778 7.62282C12.7754 7.39472 12.3946 7.28652 12.0555 7.28652C11.7098 7.28652 11.4082 7.39902 11.1727 7.61112L11.0996 7.53772C11.1227 7.51352 11.1461 7.49002 11.1707 7.46782C11.1715 7.46702 11.1727 7.46622 11.1735 7.46542C11.4071 7.25492 11.7055 7.14242 12.0481 7.14042C12.0489 7.14042 12.05 7.14042 12.0512 7.14042C12.0528 7.14042 12.0539 7.14042 12.0555 7.14042C12.3946 7.14042 12.7754 7.24862 13.1778 7.47682L27.786 15.7768L27.7856 15.7771L27.6926 15.8701Z" fill="url(#paint11_linear)"/>
<defs>
<linearGradient id="paint0_linear" x1="22.4638" y1="8.70985" x2="5.68132" y2="25.4924" gradientUnits="userSpaceOnUse">
<stop stop-color="#00A0FF"/>
<stop offset="0.00657445" stop-color="#00A1FF"/>
<stop offset="0.2601" stop-color="#00BEFF"/>
<stop offset="0.5122" stop-color="#00D2FF"/>
<stop offset="0.7604" stop-color="#00DFFF"/>
<stop offset="1" stop-color="#00E3FF"/>
</linearGradient>
<linearGradient id="paint1_linear" x1="34.4985" y1="20.0012" x2="10.3015" y2="20.0012" gradientUnits="userSpaceOnUse">
<stop stop-color="#FFE000"/>
<stop offset="0.4087" stop-color="#FFBD00"/>
<stop offset="0.7754" stop-color="#FFA500"/>
<stop offset="1" stop-color="#FF9C00"/>
</linearGradient>
<linearGradient id="paint2_linear" x1="25.4907" y1="22.2961" x2="2.73236" y2="45.0544" gradientUnits="userSpaceOnUse">
<stop stop-color="#FF3A44"/>
<stop offset="1" stop-color="#C31162"/>
</linearGradient>
<linearGradient id="paint3_linear" x1="7.96057" y1="0.17638" x2="18.1231" y2="10.3389" gradientUnits="userSpaceOnUse">
<stop stop-color="#32A071"/>
<stop offset="0.0685" stop-color="#2DA771"/>
<stop offset="0.4762" stop-color="#15CF74"/>
<stop offset="0.8009" stop-color="#06E775"/>
<stop offset="1" stop-color="#00F076"/>
</linearGradient>
<linearGradient id="paint4_linear" x1="34.4978" y1="20.0011" x2="10.3018" y2="20.0011" gradientUnits="userSpaceOnUse">
<stop stop-color="#CCB300"/>
<stop offset="0.4087" stop-color="#CC9700"/>
<stop offset="0.7754" stop-color="#CC8400"/>
<stop offset="1" stop-color="#CC7D00"/>
</linearGradient>
<linearGradient id="paint5_linear" x1="25.4911" y1="22.2961" x2="2.7328" y2="45.0544" gradientUnits="userSpaceOnUse">
<stop stop-color="#CC2E36"/>
<stop offset="1" stop-color="#9C0E4E"/>
</linearGradient>
<linearGradient id="paint6_linear" x1="22.4638" y1="8.70946" x2="5.68131" y2="25.492" gradientUnits="userSpaceOnUse">
<stop stop-color="#008DE0"/>
<stop offset="0.00657445" stop-color="#008DE0"/>
<stop offset="0.2601" stop-color="#00A7E0"/>
<stop offset="0.5122" stop-color="#00B8E0"/>
<stop offset="0.7604" stop-color="#00C4E0"/>
<stop offset="1" stop-color="#00C7E0"/>
</linearGradient>
<linearGradient id="paint7_linear" x1="25.4913" y1="22.2964" x2="2.73406" y2="45.0549" gradientUnits="userSpaceOnUse">
<stop stop-color="#E0333C"/>
<stop offset="1" stop-color="#AB0F56"/>
</linearGradient>
<linearGradient id="paint8_linear" x1="34.4989" y1="20.001" x2="10.3019" y2="20.001" gradientUnits="userSpaceOnUse">
<stop stop-color="#E0C500"/>
<stop offset="0.4087" stop-color="#E0A600"/>
<stop offset="0.7754" stop-color="#E09100"/>
<stop offset="1" stop-color="#E08900"/>
</linearGradient>
<linearGradient id="paint9_linear" x1="34.4993" y1="20.001" x2="10.3023" y2="20.001" gradientUnits="userSpaceOnUse">
<stop stop-color="#FFE840"/>
<stop offset="0.4087" stop-color="#FFCE40"/>
<stop offset="0.7754" stop-color="#FFBC40"/>
<stop offset="1" stop-color="#FFB540"/>
</linearGradient>
<linearGradient id="paint10_linear" x1="22.4638" y1="8.71004" x2="5.6813" y2="25.4925" gradientUnits="userSpaceOnUse">
<stop stop-color="#40B8FF"/>
<stop offset="0.00657445" stop-color="#40B9FF"/>
<stop offset="0.2601" stop-color="#40CEFF"/>
<stop offset="0.5122" stop-color="#40DDFF"/>
<stop offset="0.7604" stop-color="#40E7FF"/>
<stop offset="1" stop-color="#40EAFF"/>
</linearGradient>
<linearGradient id="paint11_linear" x1="7.96141" y1="0.176016" x2="18.1239" y2="10.3385" gradientUnits="userSpaceOnUse">
<stop stop-color="#65B895"/>
<stop offset="0.0685" stop-color="#62BD95"/>
<stop offset="0.4762" stop-color="#50DB97"/>
<stop offset="0.8009" stop-color="#44ED98"/>
<stop offset="1" stop-color="#40F498"/>
</linearGradient>
</defs>
</svg>
